<svg xmlns="http://www.w3.org/2000/svg" viewBox="0 0 33 22"><rect width="33" height="22" fill="#039"/><path d="M16.5,2.44l-.38,1.17.58.19Z" fill="#fc0"/><path d="M16.5,2.44l.38,1.17-.58.19Z" fill="#fc0"/><path d="M17.66,3.29H16.44V3.9Z" fill="#fc0"/><path d="M17.66,3.29l-1,.72-.36-.5Z" fill="#fc0"/><path d="M17.22,4.66l-.38-1.17-.58.19Z" fill="#fc0"/><path d="M17.22,4.66l-1-.72.36-.5Z" fill="#fc0"/><path d="M15.34,3.29h1.22V3.9Z" fill="#fc0"/><path d="M15.34,3.29l1,.72.36-.5Z" fill="#fc0"/><path d="M15.78,4.66l.38-1.17.58.19Z" fill="#fc0"/><path d="M15.78,4.66l1-.72-.36-.5Z" fill="#fc0"/><path d="M16.5,17.11l-.38,1.16.58.19Z" fill="#fc0"/><path d="M16.5,17.11l.38,1.16-.58.19Z" fill="#fc0"/><path d="M17.66,18H16.44v.61Z" fill="#fc0"/><path d="M17.66,18l-1,.71-.36-.49Z" fill="#fc0"/><path d="M17.22,19.32l-.38-1.16-.58.19Z" fill="#fc0"/><path d="M17.22,19.32l-1-.72.36-.49Z" fill="#fc0"/><path d="M15.34,18h1.22v.61Z" fill="#fc0"/><path d="M15.34,18l1,.71.36-.49Z" fill="#fc0"/><path d="M15.78,19.32l.38-1.16.58.19Z" fill="#fc0"/><path d="M15.78,19.32l1-.72-.36-.49Z" fill="#fc0"/><path d="M9.17,9.78l-.38,1.16.58.19Z" fill="#fc0"/><path d="M9.17,9.78l.37,1.16L9,11.13Z" fill="#fc0"/><path d="M10.33,10.62H9.11v.61Z" fill="#fc0"/><path d="M10.33,10.62l-1,.72L9,10.85Z" fill="#fc0"/><path d="M9.89,12l-.38-1.16L8.93,11Z" fill="#fc0"/><path d="M9.89,12l-1-.72.36-.49Z" fill="#fc0"/><path d="M8,10.62H9.23v.61Z" fill="#fc0"/><path d="M8,10.62l1,.72.36-.49Z" fill="#fc0"/><path d="M8.45,12l.38-1.16.58.19Z" fill="#fc0"/><path d="M8.45,12l1-.72-.36-.49Z" fill="#fc0"/><path d="M12.11,5.64l1-.72-.36-.49Z" fill="#fc0"/><path d="M12.11,5.64l.38-1.16.58.18Z" fill="#fc0"/><path d="M11.67,4.27l1,.72L13,4.5Z" fill="#fc0"/><path d="M11.67,4.27h1.22v.61Z" fill="#fc0"/><path d="M12.83,3.43l-.37,1.16.58.19Z" fill="#fc0"/><path d="M12.83,3.43l.38,1.16-.58.19Z" fill="#fc0"/><path d="M13.55,5.64l-1-.72.36-.49Z" fill="#fc0"/><path d="M13.55,5.64l-.38-1.16-.58.18Z" fill="#fc0"/><path d="M14,4.27,13,5l-.36-.49Z" fill="#fc0"/><path d="M14,4.27H12.77v.61Z" fill="#fc0"/><path d="M10.87,8.32l-.38-1.16-.58.19Z" fill="#fc0"/><path d="M10.87,8.32l-1-.72.36-.49Z" fill="#fc0"/><path d="M9.43,8.32l1-.72-.36-.49Z" fill="#fc0"/><path d="M9.43,8.32l.38-1.16.58.19Z" fill="#fc0"/><path d="M9,7l1,.71.35-.49Z" fill="#fc0"/><path d="M9,7h1.22v.61Z" fill="#fc0"/><path d="M11.31,7l-1,.71L10,7.18Z" fill="#fc0"/><path d="M11.31,7H10.09v.61Z" fill="#fc0"/><path d="M10.15,6.11l.38,1.16L10,7.46Z" fill="#fc0"/><path d="M10.15,6.11,9.77,7.27l.58.19Z" fill="#fc0"/><path d="M11.31,14.29H10.09v.61Z" fill="#fc0"/><path d="M11.31,14.29l-1,.72-.36-.5Z" fill="#fc0"/><path d="M10.87,15.66l-.38-1.17-.58.19Z" fill="#fc0"/><path d="M10.87,15.66l-1-.72.36-.5Z" fill="#fc0"/><path d="M9.43,15.66l1-.72-.36-.5Z" fill="#fc0"/><path d="M9.43,15.66l.38-1.17.58.19Z" fill="#fc0"/><path d="M10.15,13.44l.38,1.17L10,14.8Z" fill="#fc0"/><path d="M10.15,13.44l-.38,1.17.58.19Z" fill="#fc0"/><path d="M9,14.29h1.22v.61Z" fill="#fc0"/><path d="M9,14.29,10,15l.35-.5Z" fill="#fc0"/><path d="M14,17H12.77v.61Z" fill="#fc0"/><path d="M14,17l-1,.72-.36-.49Z" fill="#fc0"/><path d="M13.55,18.34l-.38-1.16-.58.19Z" fill="#fc0"/><path d="M13.55,18.34l-1-.72.36-.49Z" fill="#fc0"/><path d="M12.11,18.34l1-.72-.36-.49Z" fill="#fc0"/><path d="M12.11,18.34l.38-1.16.58.19Z" fill="#fc0"/><path d="M12.83,16.13l.38,1.16-.58.19Z" fill="#fc0"/><path d="M12.83,16.13l-.37,1.16.58.19Z" fill="#fc0"/><path d="M11.67,17h1.22v.61Z" fill="#fc0"/><path d="M11.67,17l1,.72L13,17.2Z" fill="#fc0"/><path d="M23.83,9.78l.38,1.16-.58.19Z" fill="#fc0"/><path d="M23.83,9.78l-.37,1.16.58.19Z" fill="#fc0"/><path d="M22.67,10.62h1.22v.61Z" fill="#fc0"/><path d="M22.67,10.62l1,.72.36-.49Z" fill="#fc0"/><path d="M23.11,12l.38-1.16.58.19Z" fill="#fc0"/><path d="M23.11,12l1-.72-.36-.49Z" fill="#fc0"/><path d="M25,10.62H23.77v.61Z" fill="#fc0"/><path d="M25,10.62l-1,.72-.36-.49Z" fill="#fc0"/><path d="M24.55,12l-.38-1.16-.58.19Z" fill="#fc0"/><path d="M24.55,12l-1-.72.36-.49Z" fill="#fc0"/><path d="M20.89,5.64l-1-.72.36-.49Z" fill="#fc0"/><path d="M20.89,5.64l-.38-1.16-.58.18Z" fill="#fc0"/><path d="M21.33,4.27l-1,.72L20,4.5Z" fill="#fc0"/><path d="M21.33,4.27H20.11v.61Z" fill="#fc0"/><path d="M20.17,3.43l.37,1.16L20,4.78Z" fill="#fc0"/><path d="M20.17,3.43l-.38,1.16.58.19Z" fill="#fc0"/><path d="M19.45,5.64l1-.72-.36-.49Z" fill="#fc0"/><path d="M19.45,5.64l.38-1.16.58.18Z" fill="#fc0"/><path d="M19,4.27,20,5l.36-.49Z" fill="#fc0"/><path d="M19,4.27h1.23v.61Z" fill="#fc0"/><path d="M22.13,8.32l.38-1.16.58.19Z" fill="#fc0"/><path d="M22.13,8.32l1-.72-.36-.49Z" fill="#fc0"/><path d="M23.57,8.32l-1-.72.36-.49Z" fill="#fc0"/><path d="M23.57,8.32l-.38-1.16-.58.19Z" fill="#fc0"/><path d="M24,7l-1,.71-.35-.49Z" fill="#fc0"/><path d="M24,7H22.79v.61Z" fill="#fc0"/><path d="M21.69,7l1,.71L23,7.18Z" fill="#fc0"/><path d="M21.69,7h1.22v.61Z" fill="#fc0"/><path d="M22.85,6.11l-.38,1.16.58.19Z" fill="#fc0"/><path d="M22.85,6.11l.38,1.16-.58.19Z" fill="#fc0"/><path d="M21.69,14.29h1.22v.61Z" fill="#fc0"/><path d="M21.69,14.29l1,.72.36-.5Z" fill="#fc0"/><path d="M22.13,15.66l.38-1.17.58.19Z" fill="#fc0"/><path d="M22.13,15.66l1-.72-.36-.5Z" fill="#fc0"/><path d="M23.57,15.66l-1-.72.36-.5Z" fill="#fc0"/><path d="M23.57,15.66l-.38-1.17-.58.19Z" fill="#fc0"/><path d="M22.85,13.44l-.38,1.17.58.19Z" fill="#fc0"/><path d="M22.85,13.44l.38,1.17-.58.19Z" fill="#fc0"/><path d="M24,14.29H22.79v.61Z" fill="#fc0"/><path d="M24,14.29,23,15l-.35-.5Z" fill="#fc0"/><path d="M19,17h1.23v.61Z" fill="#fc0"/><path d="M19,17l1,.72.36-.49Z" fill="#fc0"/><path d="M19.45,18.34l.38-1.16.58.19Z" fill="#fc0"/><path d="M19.45,18.34l1-.72-.36-.49Z" fill="#fc0"/><path d="M20.89,18.34l-1-.72.36-.49Z" fill="#fc0"/><path d="M20.89,18.34l-.38-1.16-.58.19Z" fill="#fc0"/><path d="M20.17,16.13l-.38,1.16.58.19Z" fill="#fc0"/><path d="M20.17,16.13l.37,1.16-.58.19Z" fill="#fc0"/><path d="M21.33,17H20.11v.61Z" fill="#fc0"/><path d="M21.33,17l-1,.72L20,17.2Z" fill="#fc0"/></svg>